<svg xmlns="http://www.w3.org/2000/svg" viewBox="0 0 1458.38 611.75"><path d="M66.86,341.76Q50,323.54,50.05,290.33V138.05q0-33.21,16.81-51.44t48.8-18.22q32,0,48.8,18.22t16.81,51.44v30H139.15V135.21q0-26.31-22.28-26.32T94.6,135.21V293.57q0,25.92,22.27,25.92t22.28-25.92V250.23h42.12v40.1q0,33.21-16.81,51.43T115.66,360Q83.67,360,66.86,341.76Z" transform="translate(-50.05 -68.39)" style="fill:#fff"/><path d="M223,341.36q-17.41-18.63-17.41-52.65v-149q0-34,17.41-52.65T273.2,68.39Q306,68.39,323.42,87t17.42,52.65v149q0,34-17.42,52.65T273.2,360Q240.4,360,223,341.36Zm73.31-49.82V136.83q0-27.95-23.09-27.94t-23.08,27.94V291.54q0,27.94,23.08,27.95T296.29,291.54Z" transform="translate(-50.05 -68.39)" style="fill:#fff"/><path d="M370.8,72.44h63.59l28.35,202.9h.81L491.9,72.44h63.58v283.5H513.36V141.29h-.81l-32.4,214.65H442.89l-32.4-214.65h-.81V355.94H370.8Z" transform="translate(-50.05 -68.39)" style="fill:#fff"/><path d="M588.69,72.44h63.59l28.35,202.9h.81l28.35-202.9h63.58v283.5H731.25V141.29h-.81L698,355.94H660.78l-32.4-214.65h-.81V355.94H588.69Z" transform="translate(-50.05 -68.39)" style="fill:#fff"/><path d="M822,341.56q-17-18.42-17-52.85V72.44h44.55V292q0,14.58,5.87,21.06t16.81,6.48q10.93,0,16.81-6.48T894.87,292V72.44H937.8V288.71q0,34.43-17,52.85T871.38,360Q839,360,822,341.56Z" transform="translate(-50.05 -68.39)" style="fill:#fff"/><path d="M969.39,72.44h55.89l43.33,169.69h.81V72.44h39.69v283.5h-45.76l-53.46-207h-.81v207H969.39Z" transform="translate(-50.05 -68.39)" style="fill:#fff"/><path d="M1142.32,72.44h44.55v283.5h-44.55Z" transform="translate(-50.05 -68.39)" style="fill:#fff"/><path d="M1254.9,112.94h-46.57V72.44H1346v40.5h-46.58v243H1254.9Z" transform="translate(-50.05 -68.39)" style="fill:#fff"/><path d="M1410,235.25,1356.15,72.44h47.38l30.38,104.08h.81l30.37-104.08h43.34l-53.87,162.81V355.94H1410Z" transform="translate(-50.05 -68.39)" style="fill:#fff"/><path d="M72,661q-17.22-19.11-17.22-54.81v-16.8H98.41v20.16q0,28.56,23.94,28.56,11.76,0,17.85-6.93t6.09-22.47q0-18.48-8.4-32.55t-31.08-33.81q-28.56-25.2-39.9-45.57t-11.34-46q0-34.86,17.64-54t51.24-19.11q33.18,0,50.19,19.11t17,54.81v12.18H148V448.72q0-15.12-5.88-22.05t-17.22-6.93q-23.1,0-23.1,28.14a55.5,55.5,0,0,0,8.61,29.82q8.61,13.86,31.29,33.6,29,25.2,39.9,45.78t10.92,48.3q0,36.12-17.85,55.44t-51.87,19.32Q89.17,680.14,72,661Z" transform="translate(-50.05 -68.39)" style="fill:#ff0166"/><path d="M233.65,660.82q-18.06-19.32-18.06-54.6V451.66q0-35.28,18.06-54.6t52.08-19.32q34,0,52.08,19.32t18.06,54.6V606.22q0,35.28-18.06,54.6t-52.08,19.32Q251.71,680.14,233.65,660.82Zm76-51.66V448.72q0-29-23.94-29t-23.94,29V609.16q0,29,23.94,29T309.67,609.16Z" transform="translate(-50.05 -68.39)" style="fill:#ff0166"/><path d="M387,381.94h46.2v252h76v42H387Z" transform="translate(-50.05 -68.39)" style="fill:#ff0166"/><path d="M531.42,381.94h46.2v294h-46.2Z" transform="translate(-50.05 -68.39)" style="fill:#ff0166"/><path d="M612.06,381.94h70.56q34.43,0,51.66,18.48T751.5,454.6V603.28q0,35.7-17.22,54.18t-51.66,18.48H612.06Zm69.72,252q11.34,0,17.43-6.72t6.09-21.84V452.5q0-15.12-6.09-21.84t-17.43-6.72H658.26v210Z" transform="translate(-50.05 -68.39)" style="fill:#ff0166"/><path d="M817.44,381.94H880l47.88,294H881.7l-8.41-58.38v.84h-52.5l-8.39,57.54H769.56ZM867.83,578.5,847.26,433.18h-.84L826.26,578.5Z" transform="translate(-50.05 -68.39)" style="fill:#ff0166"/><path d="M950.15,381.94h68.46q35.7,0,52.08,16.59t16.38,51v18.06q0,45.78-30.24,58v.84q16.8,5,23.73,20.58t6.93,41.58v51.66a194.72,194.72,0,0,0,.84,20.37,51.12,51.12,0,0,0,4.2,15.33h-47a67.34,67.34,0,0,1-3.36-13.44q-.84-6.3-.84-22.68V586.06q0-20.16-6.51-28.14t-22.47-8h-16v126h-46.2Zm63,126q13.86,0,20.79-7.14t6.93-23.94V454.18q0-16-5.67-23.1t-17.85-7.14h-21v84Z" transform="translate(-50.05 -68.39)" style="fill:#ff0166"/><path d="M1119.41,381.94h46.2v294h-46.2Z" transform="translate(-50.05 -68.39)" style="fill:#ff0166"/><path d="M1236.16,423.94h-48.3v-42h142.8v42h-48.3v252h-46.2Z" transform="translate(-50.05 -68.39)" style="fill:#ff0166"/><path d="M1397,550.78l-55.86-168.84h49.14l31.5,107.94h.84l31.5-107.94h44.94l-55.86,168.84V675.94H1397Z" transform="translate(-50.05 -68.39)" style="fill:#ff0166"/></svg>