<svg xmlns="http://www.w3.org/2000/svg" viewBox="0 0 841.2 864">
  <style>
    #c {
      fill: #0a0a0a;
    }

    @media (prefers-color-scheme: dark) {
      #c {
        fill: white;
      }
    }
  </style>
  <path
    d="M136.4,874.85q-49.8-54-49.8-152.41V271.25q0-98.38,49.8-152.4T281,64.85q94.78,0,144.59,54t49.8,152.4v88.8H350.6v-97.2q0-78-66-78t-66,78v469.2q0,76.8,66,76.8t66-76.8V603.64H475.4v118.8q0,98.41-49.8,152.41T281,928.85Q186.21,928.85,136.4,874.85Z"
    transform="translate(-86.6 -64.85)" id="c" />
  <path
    d="M583.39,874.25q-49.18-54.6-49.18-156.61v-48H659v57.61q0,81.62,68.39,81.6,33.61,0,51-19.8t17.41-64.2q0-52.79-24-93T683,535.25q-81.6-72-114-130.2T536.6,273.64q0-99.58,50.39-154.18t146.4-54.61q94.82,0,143.41,54.61t48.59,156.59v34.8H800.6V267.64q0-43.18-16.8-63t-49.2-19.79q-66,0-66,80.4,0,45.62,24.59,85.21t89.41,96q82.77,72,114,130.81t31.2,138q0,103.2-51,158.39T728.6,928.85Q632.6,928.85,583.39,874.25Z"
    transform="translate(-86.6 -64.85)" style="fill:#ea3968" />
</svg>