<svg xmlns="http://www.w3.org/2000/svg" viewBox="0 0 939.09 939.09"><path d="M503.43,163.82l138,87.82a6.36,6.36,0,0,1,2.94,5.36V378.41a6.36,6.36,0,0,0,6.36,6.36h52.91a6.36,6.36,0,0,1,6.36,6.36v66a6.36,6.36,0,0,1-6.36,6.36H658.4a6.36,6.36,0,0,0-6.28,7.37L702.27,784.3a6.36,6.36,0,0,1-6.28,7.36H304a6.36,6.36,0,0,1-6.28-7.36l50.15-313.41a6.36,6.36,0,0,0-6.28-7.37H296.35a6.36,6.36,0,0,1-6.36-6.36v-66a6.36,6.36,0,0,1,6.36-6.36h52.91a6.36,6.36,0,0,0,6.36-6.36V257.78a6.37,6.37,0,0,1,2.92-5.36l138-88.59A6.36,6.36,0,0,1,503.43,163.82Zm66.36,348.33L417.42,567.51a6.35,6.35,0,0,0-4.11,5L396.7,677a6.36,6.36,0,0,0,8.47,7l181.89-66.7a6.37,6.37,0,0,0,4.12-6.84l-12.92-93.19A6.36,6.36,0,0,0,569.79,512.15ZM496.58,257.29l-59.29,38.19a6.35,6.35,0,0,0-2.92,5.34v77.59a6.36,6.36,0,0,0,6.36,6.36H559.27a6.36,6.36,0,0,0,6.36-6.36V300.32a6.37,6.37,0,0,0-3-5.37l-59.25-37.68A6.36,6.36,0,0,0,496.58,257.29Z" transform="translate(-30.45 -36.34)" style="fill:#fff;stroke:#fff;stroke-miterlimit:10"/><path d="M94.92,656.67C214.15,595.61,302,592.86,360.61,601.93,498.2,623.22,547.85,721.13,693.1,735.59c81.6,8.13,152-14.2,198-33.79-2.4,6.08-6,14.72-11.12,24.84-46.33,92.5-129.31,143-147.23,153.49-117.75,69-240.36,62.19-268.47,60C449.25,939,272.55,923.1,163.48,792A330.2,330.2,0,0,1,100.53,675.2Z" transform="translate(-30.45 -36.34)" style="fill:#0ea5e9;stroke:#fff;stroke-miterlimit:10;stroke-width:50px"/><circle cx="469.55" cy="469.55" r="435.55" style="fill:none;stroke:#fff;stroke-miterlimit:10;stroke-width:68px"/></svg>