<svg xmlns="http://www.w3.org/2000/svg" viewBox="0 0 630 801.59">
  <style>
    .c {
      fill: #0a0a0a;
    }

    @media (prefers-color-scheme: dark) {
      .c {
        fill: white;
      }
    }
  </style>
  <path class="c"
    d="M141.85,616.58q-36.25-39.3-36.25-110.93V177.23q0-71.59,36.25-110.92T247.1,27q69,0,105.24,39.31t36.25,110.92v64.64H297.76V171.12q0-56.77-48-56.77t-48,56.77V512.64q0,55.9,48,55.9t48-55.9V419.17H388.6v86.48q0,71.63-36.25,110.93T247.1,655.89Q178.1,655.89,141.85,616.58Z"
    transform="translate(-105.6 -26.01)" />
  <path
    d="M484.12,617q-35.91-39.87-35.91-114.35V467.61h91.12v42.07q0,59.59,49.94,59.58,24.54,0,37.23-14.46t12.72-46.88q0-38.54-17.53-67.9t-64.84-70.54q-59.58-52.58-83.24-95.07t-23.65-96q0-72.7,36.79-112.58T593.65,26q69.23,0,104.71,39.87t35.48,114.34v25.41H642.72V174.08q0-31.53-12.27-46t-35.92-14.45q-48.19,0-48.19,58.71a115.8,115.8,0,0,0,17.95,62.21q18,28.92,65.29,70.1,60.43,52.58,83.24,95.52T735.6,500.93q0,75.36-37.24,115.65t-108.21,40.3Q520.05,656.88,484.12,617Z"
    transform="translate(-105.6 -26.01)" style="fill:#ea3968" />
  <path class="c"
    d="M196.3,692.3v5.4q-6.9,0-6.9,4.5v99.9h81a10.35,10.35,0,0,0,6-1.65,5.32,5.32,0,0,0,2.4-4.65h5.4v31.5h-5.4a2.43,2.43,0,0,0-2.4-2.7,47.76,47.76,0,0,0-6-.3H152.8v-5.4q7.8,0,7.8-4.5V702.2q0-4.5-7.8-4.5v-5.4Z"
    transform="translate(-105.6 -26.01)" />
  <path class="c"
    d="M323.8,818.9q4.8,0,6.6-1a3.68,3.68,0,0,0,1.8-3.45V702.2a3.68,3.68,0,0,0-1.8-3.45q-1.8-1.05-6.6-1v-5.4h45.6v5.4q-8.4,0-8.4,4.5V814.4q0,4.5,8.4,4.5v5.4H323.8Z"
    transform="translate(-105.6 -26.01)" />
  <path class="c"
    d="M452.8,818.9a5.23,5.23,0,0,0,3-1,3.91,3.91,0,0,0,1.5-3.45V714.5h-39a8.92,8.92,0,0,0-4.5,1.2,4.15,4.15,0,0,0-2.1,3.9h-5.4V685.1h5.4q0,4.2,2.1,5.7a7.6,7.6,0,0,0,4.5,1.5H525.1a7.6,7.6,0,0,0,4.5-1.5c1.39-1,2.1-2.9,2.1-5.7h5.4v34.5h-5.4a4.17,4.17,0,0,0-2.1-3.9,8.92,8.92,0,0,0-4.5-1.2h-39v99.9q0,4.5,5.4,4.5v5.4H452.8Z"
    transform="translate(-105.6 -26.01)" />
  <path class="c"
    d="M687.1,720.2c0-3.8-3.11-5.7-9.3-5.7H604.6v30h46.2a27.33,27.33,0,0,0,7.5-.75q2.4-.75,2.4-4h5.4v31.8h-6q.9-3.3-2.4-4a44.42,44.42,0,0,0-9.3-.75H604.6v35.4h76.8a10.37,10.37,0,0,0,6-1.65,5.05,5.05,0,0,0,2.4-4.35h5.4v31.5h-5.4c0-1.8-.8-2.81-2.4-3a47.87,47.87,0,0,0-6-.3H571.3v-5.4a5.23,5.23,0,0,0,3-1,3.91,3.91,0,0,0,1.5-3.45V702.2a3.91,3.91,0,0,0-1.5-3.45,5.23,5.23,0,0,0-3-1v-5.4H677.8c6.19,0,9.3-1.8,9.3-5.4h5.4v33.3Z"
    transform="translate(-105.6 -26.01)" />
</svg>