<svg xmlns="http://www.w3.org/2000/svg" viewBox="0 0 891.91 886.14"><rect x="166.31" y="177.57" width="654.5" height="649.98" rx="37.9" transform="translate(-243.63 292.56) rotate(-33.05)" style="fill:#444"/><rect width="417.71" height="417.71" rx="78.4" style="fill:#176ff3"/><rect x="474.2" width="417.71" height="417.71" rx="78.4" style="fill:#176ff3"/><rect x="2.69" y="468.43" width="417.71" height="417.71" rx="78.4" style="fill:#e6c402"/><rect x="471.84" y="468.43" width="417.71" height="417.71" rx="78.4" style="fill:#e6c402"/><path d="M158.7,146.67a36.48,36.48,0,1,1,73,0v193.8H332a29.83,29.83,0,0,1,0,59.66H191c-20.9,0-32.3-11.4-32.3-32.3Z" transform="translate(-49.42 -57.89)" style="fill:#fff"/><path d="M733.8,156.43a36.49,36.49,0,0,1,68.57,25L727.11,388.14a36.48,36.48,0,0,1-68.56-24.95Z" transform="translate(-49.42 -57.89)" style="fill:#fff"/><path d="M174.47,800.54c12.92,0,20.72,7.14,28.88,17.48,5.7,7.22,13.68,16,31.16,16,20.9,0,32.3-9.5,32.3-38V631.06a36.48,36.48,0,1,1,73,0v161.5c0,54-27.36,98.42-102.6,98.42-39.9,0-74.48-12.54-90.44-35a35,35,0,0,1-6.84-20.9C139.89,814.6,155.09,800.54,174.47,800.54Z" transform="translate(-49.42 -57.89)" style="fill:#3b3b3b"/><path d="M723.66,584.67c42.67,0,107.54,17.88,107.54,59.29,0,18.24-14.82,31.54-33.06,31.54-32,0-32.24-34.58-76.38-34.58-24.7,0-39.14,11.4-39.14,24.7,0,14.06,7.22,24.32,36.1,30.4l46.36,9.88c58.14,12.54,81.32,42.18,81.32,85.12,0,48.64-30.78,93.86-120.08,93.86-57.16,0-120.46-16.28-120.46-60.42,0-19,15.58-31.54,34.58-31.54,32.23,0,37.24,30.4,82.84,30.4,30.4,0,46.74-9.12,46.74-27.36,0-13.3-7.22-22.42-34.58-28.12L688.7,758c-53.2-11.4-79.42-38-79.42-85.12C609.28,623.06,650.7,584.67,723.66,584.67Z" transform="translate(-49.42 -57.89)" style="fill:#3b3b3b"/><path d="M882,675.88h9.81a30.63,30.63,0,0,1,0,61.25H882a30.63,30.63,0,0,1,0-61.25Zm0,129.5c26.83,0,40.18,19.4,40.18,41.67,0,22.47-16.31,75.93-53.83,75.93-8.75,0-14.35-5.6-14.35-12.6,0-4.55,2.8-8.75,10-13,11.31-6.56,20.07-16.36,20.07-30.71H882a30.63,30.63,0,0,1,0-61.25Z" transform="translate(-49.42 -57.89)" style="fill:#3b3b3b"/></svg>